/* XPM */
static char * app_icon_xpm[] = {
"32 32 198 2",
"  	c None",
". 	c #226CAE",
"+ 	c #146EB8",
"@ 	c #136EB8",
"# 	c #1A6FB2",
"$ 	c #206EAE",
"% 	c #126EB6",
"& 	c #116EB6",
"* 	c #106FB7",
"= 	c #1070B7",
"- 	c #126FB6",
"; 	c #146EB6",
"> 	c #1570B8",
", 	c #1470B8",
"' 	c #1371B8",
") 	c #1670B9",
"! 	c #176EB8",
"~ 	c #1E6DB5",
"{ 	c #1C6BAE",
"] 	c #0270BE",
"^ 	c #0171C0",
"/ 	c #0E6CB9",
"( 	c #166CB0",
"_ 	c #0370C0",
": 	c #0270C2",
"< 	c #036FC0",
"[ 	c #0171C1",
"} 	c #0071C1",
"| 	c #0171C2",
"1 	c #0070BF",
"2 	c #076DBD",
"3 	c #2071B2",
"4 	c #1F6DB0",
"5 	c #026FC0",
"6 	c #0271C2",
"7 	c #186CB1",
"8 	c #1872BE",
"9 	c #0371C3",
"0 	c #036FBD",
"a 	c #206FAE",
"b 	c #0C6EBB",
"c 	c #0171BF",
"d 	c #0272C2",
"e 	c #046EBD",
"f 	c #1C70B6",
"g 	c #1C71B8",
"h 	c #2570B3",
"i 	c #1E6DAB",
"j 	c #1D71B8",
"k 	c #1D72BA",
"l 	c #1D73BA",
"m 	c #1D72B9",
"n 	c #1D71BC",
"o 	c #0D6DBB",
"p 	c #016FBD",
"q 	c #0071BF",
"r 	c #0272C3",
"s 	c #1C71B9",
"t 	c #0D6DB6",
"u 	c #066DB9",
"v 	c #216DB0",
"w 	c #166DB4",
"x 	c #0370BF",
"y 	c #0371BF",
"z 	c #0171C5",
"A 	c #036FC2",
"B 	c #0270C1",
"C 	c #026FC2",
"D 	c #0170BF",
"E 	c #076FBB",
"F 	c #1671B9",
"G 	c #1571B9",
"H 	c #1572B8",
"I 	c #1470B7",
"J 	c #056FBF",
"K 	c #0271C1",
"L 	c #036FBC",
"M 	c #2574B8",
"N 	c #046EBC",
"O 	c #0170C0",
"P 	c #0172BE",
"Q 	c #0172BF",
"R 	c #046EBE",
"S 	c #176FB7",
"T 	c #0271C0",
"U 	c #1F6DAC",
"V 	c #1871B7",
"W 	c #0170C2",
"X 	c #0C6FBB",
"Y 	c #186DB9",
"Z 	c #066EB7",
"` 	c #016FBE",
" .	c #136CB5",
"..	c #1F6DAD",
"+.	c #106EBC",
"@.	c #106EBA",
"#.	c #106FBA",
"$.	c #2471B5",
"%.	c #1C6CB1",
"&.	c #106EB6",
"*.	c #0F6DB5",
"=.	c #106EB5",
"-.	c #046FBF",
";.	c #046EC2",
">.	c #0970BC",
",.	c #176FB6",
"'.	c #196DB5",
").	c #066CBD",
"!.	c #066DBE",
"~.	c #1F6EB4",
"{.	c #176AB3",
"].	c #066DBC",
"^.	c #056FBC",
"/.	c #0270BF",
"(.	c #056EBE",
"_.	c #0170C1",
":.	c #096FBC",
"<.	c #1770B7",
"[.	c #046DBC",
"}.	c #116DB5",
"|.	c #196FB9",
"1.	c #0D6FBB",
"2.	c #1570B4",
"3.	c #0171BE",
"4.	c #186DB6",
"5.	c #076FB3",
"6.	c #0470BC",
"7.	c #186DB1",
"8.	c #026EBD",
"9.	c #0271BE",
"0.	c #206FB0",
"a.	c #1B6EB7",
"b.	c #176CB6",
"c.	c #246DAB",
"d.	c #216DAC",
"e.	c #166EB7",
"f.	c #166FB8",
"g.	c #1770B9",
"h.	c #076EB9",
"i.	c #0072BF",
"j.	c #0070BE",
"k.	c #0D6DBA",
"l.	c #1C72B8",
"m.	c #1D71B6",
"n.	c #1D72B7",
"o.	c #1B71B7",
"p.	c #066FBC",
"q.	c #046FBC",
"r.	c #0D6DB7",
"s.	c #026EB9",
"t.	c #1C6EB2",
"u.	c #176CB5",
"v.	c #046DB9",
"w.	c #046EBA",
"x.	c #056FBB",
"y.	c #046DBF",
"z.	c #046FBE",
"A.	c #0470BA",
"B.	c #0470BD",
"C.	c #006FBD",
"D.	c #0270C3",
"E.	c #1A6FB7",
"F.	c #1470B6",
"G.	c #0170BE",
"H.	c #046FBD",
"I.	c #2375B4",
"J.	c #0270BD",
"K.	c #1E6FAD",
"L.	c #126FB9",
"M.	c #0170C3",
"N.	c #0370C3",
"O.	c #176DB5",
"P.	c #1168B7",
"Q.	c #026EBB",
"R.	c #036EBD",
"S.	c #026EBC",
"T.	c #0072BE",
"U.	c #0071C5",
"V.	c #0070C6",
"W.	c #0071C3",
"X.	c #0071C2",
"Y.	c #046FC5",
"Z.	c #0172C1",
"`.	c #036FB9",
" +	c #1E6FB5",
".+	c #176DB1",
"++	c #0E6DB6",
"@+	c #0D6BB9",
"#+	c #0E6BB6",
"$+	c #0E6CB4",
"%+	c #0D6CB6",
"&+	c #0B6CBB",
"*+	c #0C6BB8",
"=+	c #0C6CB8",
"-+	c #0C6CB6",
";+	c #0D6CB8",
">+	c #156EBA",
",+	c #1A71B7",
"                                                                ",
"                                                                ",
"                                                                ",
"                                                                ",
"                                                                ",
"              . + @ #   $ % & * = - ; > , ' , ) ! ~             ",
"              { ] ^ /   ( _ : < [ [ [ [ } } | | } 1 2 3         ",
"                              4 5 6 6 } } } [ [ [ [ [ | 7       ",
"                                8 [ 9 [ [ [ [ [ [ [ [ [ 0 a     ",
"                                b c d | | | | | | [ [ [ ^ e     ",
"      f g h   i j k l l k m n o p q d r r r r r r | [ [ [ [ s   ",
"      t u v   w x x y z : A B C D ^ ^ E F G H I J K [ [ [ [ L   ",
"                      M N O P Q [ [ R             S T [ [ [ [ U ",
"                        V ^ [ W W [ X               - [ [ [ [ Y ",
"                        Z c [ | [ ^ X                 ` [ [ [  .",
"..+.+.@.#.$.  %.&.*.=.-.;.^ [ [ [ c X                 >.[ [ [ ,.",
"'.).!.R R ~.  {.].^.L /.(._.^ [ [ ^ X                 :.[ [ [ <.",
"                        [._.[ [ [ ^ X                 ] [ [ ^ }.",
"                        |.^ [ [ ^ c 1.              2.[ [ ^ 3.4.",
"                        5._.^ [ [ ^ 6.            7.8._.| [ 9.0.",
"      a.b.c.  d.e.f.g.h.i.[ W [ [ ^ j.k.l.m.n.o.p.D B : : [ q.  ",
"      r.s.t.  u.v.w.x.y.z.A.q.B.j.c c j.C.C.j.j.^ _.: D.: [ E.  ",
"                                F.G.c ^ ^ ^ ^ ^ [ [ [ | ^ H.    ",
"                                I.O [ [ [ [ [ [ [ [ [ ^ J.K.    ",
"                                L.M.M.| [ [ [ [ [ [ ^ N.O.      ",
"                      P.Q.R.R.S.T.U.V.W.X.X.X.D.Y.Z.`. +        ",
"                      .+++@+#+$+%+&+*+=+-+-+-+;+>+,+            ",
"                                                                ",
"                                                                ",
"                                                                ",
"                                                                ",
"                                                                "};
